
-------------------------------------------------
[img]http://imgr.us/images/q9oy4odn5053an1o867h.png[/img]
-------------------------------------------------
File Name    : You Cant Scare Me
Type         : TV Series
Format       : AVI
File Size    : 298 MB
Duration     : 00:20:39
Language     : English
Source       : TV
-------------------------------------------------
Season       : 2
Episode      : 7
-------------------------------------------------
Air Date     : Saturday October 5, 1996
Subtitles    : None
Genre        : Family | Fantasy | Horror
IMDB Link    : http://www.imdb.com/title/tt0591390/
-------------------------------------------------
[img]http://imgr.us/images/a14k8fabur54ad5gubq4.png[/img]
-------------------------------------------------
Format                           : MPEG-4 Visual
Format profile                   : Advanced Simple@L5
Format settings, BVOP            : 1
Format settings, QPel            : No
Format settings, GMC             : No warppoints
Format settings, Matrix          : Custom
Codec ID                         : XVID
Codec ID/Hint                    : XviD
Duration                         : 20mn 39s
Bit rate                         : 1 755 Kbps
Width                            : 720 pixels
Height                           : 544 pixels
Display aspect ratio             : 4:3
Frame rate                       : 23.976 fps
Color space                      : YUV
Chroma subsampling               : 4:2:0
Bit depth                        : 8 bits
Scan type                        : Progressive
Compression mode                 : Lossy
Bits/(Pixel*Frame)               : 0.187
Stream size                      : 259 MiB (87%)
Writing library                  : XviD 58
-------------------------------------------------
[img]http://imgr.us/images/2s0oz5wrpxo5em2q6m.png[/img]
-------------------------------------------------
Format                           : MPEG Audio
Format version                   : Version 1
Format profile                   : Layer 2
Codec ID                         : 50
Duration                         : 20mn 39s
Bit rate mode                    : Constant
Bit rate                         : 256 Kbps
Channel(s)                       : 2 channels
Sampling rate                    : 48.0 KHz
Compression mode                 : Lossy
Delay relative to video          : 48ms
Stream size                      : 37.8 MiB (13%)
Alignment                        : Aligned on interleaves
Interleave, duration             : 83 ms (2.00 video frames)
Interleave, preload duration     : 504 ms
-------------------------------------------------
[img]http://imgr.us/images/bnnacqs56aalgsuyqma.png[/img]
-------------------------------------------------
Courtney is a total showoff. She thinks she's so brave 
and she's always making Eddie and his friends look like 
wimps. But now Eddie's decided he's had enough. He's 
going to scare Courtney once and for all. And he's come 
up with the perfect plan. He's going to lure Courtney 
down to Muddy Creek. Because Eddie knows Courtney believes 
in that silly rumor about the mud Monsters that live in 
the creek. Too bad Eddie doesn't believe the rumor. Because 
it just might be true.
-------------------------------------------------
[img]http://imgr.us/images/7clcz7gn5qp6df9a7b1t.png[/img]
[img]http://imgr.us/images/6yxhscv0xsylnstmgooo.png[/img]
[img]http://imgr.us/images/ffyjiub08crkq9o9ijlj.png[/img]
[img]http://imgr.us/images/zvfioe1wjfrm8lsdbh1w.png[/img]
[img]http://imgr.us/images/yszf4k7hqustrtf7z5.png[/img]
[img]http://imgr.us/images/ywiw2i50yeawwir91xc5.jpg[/img]